PathFileType	4	(X/Y/Z)	C:/Users/beibeiliu/ov580/test_trc/User3\sequence.8_training_dense_left.trc
DataRate	CameraRate	NumFrames	NumMarkers	Units	OrigDataRate	OrigDataStartFrame	OrigNumFrames
120	120	19	19	mm	120	118	235
Frame#	Time	ThumbCMC			ThumbMCP			ThumbIP			ThumbTip			IndexMCP			IndexPIP			IndexTip			MiddleMCP			MiddlePIP			MiddleTip			RingMCP			RingPIP			RingTip			PinkyMCP			PinkyPIP			PinkyTip			BackHand1			BackHand2			BackHand3	
		X0	Y0	Z0	X1	Y1	Z1	X2	Y2	Z2	X3	Y3	Z3	X4	Y4	Z4	X5	Y5	Z5	X6	Y6	Z6	X7	Y7	Z7	X8	Y8	Z8	X9	Y9	Z9	X10	Y10	Z10	X11	Y11	Z11	X12	Y12	Z12	X13	Y13	Z13	X14	Y14	Z14	X15	Y15	Z15	X16	Y16	Z16	X17	Y17	Z17	X18	Y18	Z18	
117	0.975	-152.016	-2.99455	32.9727	-127.317	-5.12604	4.53132	-120.894	-9.7684	-20.9911	-127.199	-17.595	-45.2207	-146.547	33.0999	-38.6086	-130.309	39.8775	-59.7	-118.178	41.1007	-83.0813	-162.171	13.0697	-54.4301	-144.989	-11.957	-67.576	-148.481	-31.9869	-35.634	-171.211	-10.0097	-49.9244	-157.801	-35.4411	-47.3853	-165.875	-33.4552	-12.5188	-190.674	-25.2929	-44.4538	-173.34	-45.403	-33.2767	-177.415	-35.7821	-3.34797	-202.75	11.5454	-7.95661	-212.815	2.55101	25.8577	-183.005	19.0282	18.9267	
118	0.983333	-151.446	-5.8472	31.1426	-126.321	-9.47121	5.64091	-119.906	-14.3621	-21.1428	-120.046	-24.0246	-45.6859	-138.725	31.7816	-33.7497	-123.596	39.8156	-55.7256	-113.397	43.9249	-76.3762	-153.796	10.9609	-52.3064	-135.989	-13.4622	-65.1455	-144.34	-34.7278	-31.6595	-168.035	-16.3981	-52.2481	-157.661	-41.3547	-44.9935	-165.075	-35.5575	-9.03324	-185.845	-26.7629	-44.1172	-171.415	-48.1912	-33.9547	-174.659	-37.6083	-3.38148	-201.628	10.0908	-6.31313	-212.424	2.39726	23.7182	-176.335	17.0842	23.7462	
119	0.991667	-149.104	-7.96138	32.208	-122.148	-12.2119	8.80622	-113.569	-17.4992	-20.0892	-119.804	-26.5954	-43.7565	-133.772	29.1193	-27.2596	-119.064	39.1503	-47.767	-106.147	47.1501	-70.6934	-149.689	10.0298	-53.2134	-132.342	-18.6038	-62.7113	-142.221	-36.5003	-27.5311	-163.396	-14.3481	-50.727	-151.434	-41.463	-42.1646	-162.463	-38.3031	-10.5458	-180.315	-26.086	-44.0102	-168.878	-48.1709	-31.7916	-173.193	-35.7522	-3.42836	-196.174	12.092	-8.70577	-209.847	3.1727	20.7961	-176.533	16.5023	23.6655	
120	1	-145.346	-8.60048	37.6482	-124.564	-14.726	13.9456	-114.005	-19.6424	-16.0672	-116.339	-26.6148	-37.1605	-130.678	31.9051	-27.6677	-116.733	39.9183	-44.6298	-101.311	49.7302	-63.3195	-147.65	11.497	-48.1448	-128.475	-15.4488	-60.4747	-138.998	-34.3665	-30.3953	-160.608	-9.05154	-45.7687	-149.678	-38.6374	-44.1488	-161.49	-35.9798	-8.8914	-174.429	-24.2204	-43.094	-163.004	-45.2222	-29.5842	-171.42	-40.1175	-4.58871	-194.954	11.4847	-3.61272	-207.417	3.13083	22.8518	-168.201	17.9686	23.6245	
121	1.00833	-142.011	-8.55199	39.0706	-121.137	-15.146	17.0537	-109.66	-17.5922	-13.0429	-114.695	-23.9012	-41.2401	-128.961	32.1826	-25.2282	-113.433	42.3103	-41.768	-97.3186	50.9331	-64.9921	-141.072	13.1662	-49.2701	-123.456	-8.90717	-59.3112	-136.933	-33.4883	-31.0427	-160.302	-9.74942	-46.654	-150.875	-38.2414	-43.5318	-159.745	-35.9161	-10.7808	-176.519	-21.142	-42.797	-163.964	-45.3307	-33.0356	-172.129	-39.0851	-4.74492	-188.576	13.1369	-3.95166	-205.699	3.69925	25.7212	-168.761	18.2791	27.4548	
122	1.01667	-145.152	-9.81846	40.2674	-119.745	-11.444	16.4645	-104.979	-14.442	-13.8601	-111.942	-19.4435	-38.8159	-124.007	35.0213	-22.7678	-108.585	43.0625	-37.7274	-90.8167	49.6552	-55.9372	-139.166	17.2156	-46.009	-121.397	-7.37085	-58.1898	-131.969	-30.5794	-26.3602	-155.855	-7.66304	-47.4201	-147.576	-36.3848	-43.2796	-157.198	-35.3892	-12.3208	-171.38	-21.1938	-44.8964	-160.953	-41.8615	-34.0683	-166.803	-34.5448	-5.07356	-187.977	14.5345	-4.7424	-203.539	7.14703	26.4096	-164.838	17.9642	29.7597	
123	1.025	-138.002	-7.45715	41.4632	-115.443	-9.48743	16.359	-105.906	-11.5565	-11.9566	-107.439	-18.3451	-35.5636	-118.247	32.9347	-17.4704	-100.693	42.141	-40.1498	-80.2849	42.2531	-59.9003	-134.307	19.1366	-42.9006	-121.565	-6.63473	-58.3394	-128.957	-29.9816	-27.5727	-152.368	-1.61528	-42.2125	-144.901	-33.0966	-43.1469	-153.485	-32.0968	-10.1329	-171.071	-14.0686	-40.6594	-157.928	-38.2878	-33.1369	-168.233	-37.5023	-5.68838	-186.683	15.4477	1.42777	-196.991	9.42702	26.9587	-166.134	18.1024	31.3909	
124	1.03333	-138.414	-8.35035	41.9037	-117.391	-11.4413	18.9913	-101.975	-12.5706	-10.2893	-106.569	-18.2086	-33.0958	-116.935	28.6002	-20.1007	-98.5246	32.0694	-41.0364	-78.4741	25.2713	-61.7251	-131.22	18.7827	-39.7157	-119.169	-8.71755	-56.9555	-128.349	-31.9812	-27.4926	-152.266	-2.58269	-42.5767	-141.597	-31.5616	-44.299	-149.978	-31.6631	-8.56777	-171.453	-15.0938	-40.4739	-158.02	-38.9795	-31.7097	-167.004	-35.1164	-2.90347	-179.689	18.5285	1.62851	-198.327	9.99263	29.7812	-162.085	16.5399	33.1485	
125	1.04167	-137.846	-8.38127	43.983	-114.52	-14.4288	23.1174	-102.382	-16.765	-6.16367	-105.546	-20.3646	-31.3615	-112.935	22.2784	-19.4335	-91.8853	18.7	-41.0762	-77.1186	0.501376	-61.389	-128.163	15.0095	-42.7781	-117.967	-11.8829	-55.8767	-130.972	-34.9331	-26.1492	-150.773	-5.24261	-43.3987	-139.815	-36.2552	-39.0486	-153	-35.4216	-7.99584	-169.756	-16.129	-39.0238	-157.128	-41.0268	-31.372	-167.384	-37.4059	-2.99112	-181.018	17.4228	0.408548	-195.05	12.3389	27.2634	-159.874	17.7525	32.4588	
126	1.05	-137.984	-10.4636	44.2207	-118.185	-16.2952	23.6617	-102.029	-18.9096	-8.01977	-105.172	-24.2189	-31.3125	-108.162	13.8553	-25.2161	-90.7578	1.93974	-42.9965	-82.09	-25.1555	-59.0308	-132.159	10.4701	-40.0531	-114.379	-14.6101	-55.0074	-127.041	-40.2037	-25.953	-148.461	-11.6114	-45.6153	-142.43	-38.5767	-40.1021	-151.374	-39.7958	-9.01627	-170.85	-19.6495	-40.3378	-157.159	-42.6501	-32.8683	-167.307	-38.0997	-2.57973	-178.359	18.0733	-1.29512	-195.892	9.63348	29.6193	-160.245	18.9767	28.4854	
127	1.05833	-138.941	-11.3627	44.7844	-114.514	-20.1339	23.8286	-105.938	-23.0007	-5.75646	-104.895	-27.9755	-34.7569	-110.87	7.10265	-27.2086	-92.5739	-6.97294	-42.9334	-84.7419	-36.4109	-55.9634	-126.548	5.07661	-42.6531	-116.852	-23.0263	-54.3179	-131.076	-45.2339	-24.2486	-147.929	-14.0951	-43.8832	-144.421	-42.2536	-41.2171	-149.944	-41.0647	-5.62849	-170.889	-23.6397	-40.2261	-162.3	-49.3091	-31.5848	-167.117	-40.6268	-1.29796	-179.081	14.5616	2.82998	-193.922	11.9445	25.4302	-160.15	17.0301	26.6463	
128	1.06667	-140.096	-13.4382	44.2225	-116.109	-21.9118	22.6779	-105.888	-25.7663	-7.57756	-106.173	-32.7193	-30.8673	-113.824	7.05306	-25.7055	-93.2651	-7.18714	-46.5584	-82.0841	-30.5762	-54.1531	-129.618	1.07915	-45.0755	-116.352	-26.2352	-55.8529	-132.118	-47.7709	-27.0528	-148.999	-18.1718	-45.7756	-144.158	-45.0738	-42.5199	-151.573	-44.0211	-6.50021	-170.259	-23.8801	-38.1545	-162.253	-52.0434	-30.3414	-166.271	-41.0624	0.00194576	-179.117	11.5429	-1.08751	-196.671	9.54719	26.7675	-159.74	15.3057	30.5473	
129	1.075	-139.188	-14.1742	43.4055	-117.204	-22.4583	20.9321	-105.933	-25.9951	-10.627	-109.377	-32.97	-29.432	-112.623	9.17479	-22.7101	-91.1109	-1.50075	-47.9637	-79.6252	-21.0072	-59.187	-133.696	0.811157	-44.4881	-117.698	-27.199	-55.9485	-131.552	-49.4214	-27.5675	-150.513	-19.506	-45.2599	-145.484	-47.8756	-41.9441	-152.916	-46.7351	-8.4122	-171.836	-26.8663	-40.7879	-159.933	-51.9192	-31.0427	-165.837	-44.4212	0.0271383	-180.048	10.9234	-0.744286	-194.689	8.59166	26.7825	-157.496	13.5765	28.2225	
130	1.08333	-138.6	-13.3454	41.077	-114.7	-20.4439	18.4643	-105.345	-27.1874	-10.2586	-107.784	-33.8452	-33.3849	-112.941	10.8853	-22.4222	-94.0821	5.67135	-48.5461	-79.8215	-13.8608	-66.1179	-130.011	1.44537	-43.7742	-117.906	-25.602	-57.5153	-129.713	-48.4425	-28.313	-153.314	-16.4707	-43.8857	-141.668	-48.4456	-39.0768	-151.908	-45.6412	-6.65226	-168.44	-27.6577	-40.0655	-159.441	-50.9508	-31.7573	-167.438	-45.6276	-2.01801	-180.131	11.6263	-4.66044	-195.297	5.7112	25.1055	-159.791	13.1994	29.8329	
131	1.09167	-140.696	-14.3377	42.1538	-116.477	-21.3129	19.7523	-104.753	-27.8426	-6.99599	-109.925	-35.2062	-32.0695	-113.372	12.0772	-25.7214	-96.2182	10.221	-45.6934	-83.318	-4.16245	-67.2643	-130.217	1.50044	-45.8594	-118.129	-26.9045	-56.7678	-133.824	-48.0084	-26.0094	-151.744	-18.6871	-44.274	-145.844	-49.1328	-40.8043	-155.2	-46.9151	-9.32084	-167.931	-26.1122	-38.4763	-161.8	-52.1009	-30.972	-170.082	-45.7154	0.52089	-182.683	9.61028	-2.40453	-194.136	8.23986	26.2237	-161.295	12.687	29.1746	
132	1.1	-138.927	-12.1707	41.151	-112.778	-20.6898	19.3823	-103.788	-25.6863	-9.27967	-107.836	-34.2724	-30.8316	-116.748	13.6761	-25.9639	-99.3185	14.066	-49.1879	-82.8599	4.93316	-67.9361	-130.163	0.838748	-46.4481	-120.754	-27.9084	-56.5629	-135.35	-46.7345	-23.2369	-147.641	-18.0655	-43.5964	-145.804	-48.6507	-38.1938	-151.549	-44.7896	-6.91127	-168.013	-26.1957	-38.3511	-160.147	-51.4631	-28.3621	-169.684	-42.7389	-0.369031	-178.68	9.34402	-3.03401	-195.463	7.13788	29.564	-156.953	15.4421	25.6195	
133	1.10833	-135.183	-10.3827	41.3605	-112.802	-19.1984	21.9196	-105.038	-25.5641	-8.1629	-108.276	-33.3982	-35.7068	-117.259	16.8405	-24.2078	-101.809	18.0589	-48.6393	-84.1858	13.0064	-70.8312	-132.581	2.10218	-45.7445	-117.322	-25.5386	-54.9989	-134.036	-45.3572	-25.6934	-154.958	-16.818	-44.0267	-143.432	-45.854	-39.1011	-151.791	-40.929	-5.30161	-171.82	-27.8201	-39.7858	-162.676	-52.4847	-29.8321	-166.805	-43.2567	-2.22492	-182.209	11.6524	0.493197	-196.333	7.56558	27.7519	-161.258	15.4813	27.1363	
134	1.11667	-138.169	-10.624	42.2132	-115.724	-16.9577	16.4311	-106.393	-23.6344	-10.84	-110.172	-32.7405	-33.7077	-120.74	19.4394	-26.1348	-99.6837	23.3899	-49.9532	-91.5762	20.2039	-71.7737	-132.123	4.05104	-45.5311	-120.698	-23.0326	-58.0363	-131.619	-41.7929	-21.2135	-154.911	-16.6026	-44.5343	-143.943	-45.9186	-37.764	-154.991	-39.2607	-4.61149	-170.635	-28.9033	-42.1246	-158.645	-49.6864	-27.1264	-165.439	-39.4534	-0.0171619	-181.43	10.1776	-4.24349	-193.891	10.0748	24.5956	-159.413	18.1805	25.479	
135	1.125	-139.101	-9.73774	43.1602	-114.989	-17.2655	18.7954	-106.762	-23.3203	-13.1856	-109.301	-32.3144	-37.0601	-122.083	21.8879	-31.3036	-109.218	25.3693	-54.9569	-98.0733	24.8881	-77.5167	-135.848	4.69384	-46.6445	-122.044	-21.642	-57.5814	-138.847	-40.7371	-22.2451	-151.679	-15.8725	-44.2712	-148.566	-46.5085	-37.1572	-153.666	-38.6247	-5.12024	-173.869	-23.7203	-38.2779	-162.222	-49.5087	-27.4941	-169.279	-40.3114	0.323625	-182.688	12.4296	-1.53928	-198.878	7.33521	22.3734	-161.043	17.4501	25.8056	
